<svg width="302" height="302" xmlns="http://www.w3.org/2000/svg">
 <!-- Created with Method Draw - http://github.com/duopixel/Method-Draw/ -->
 <g>
  <title>background</title>
  <rect fill="#00ff3b" id="canvas_background" height="304" width="304" y="-1" x="-1"/>
  <g display="none" overflow="visible" y="0" x="0" height="100%" width="100%" id="canvasGrid">
   <rect fill="url(#gridpattern)" stroke-width="0" y="0" x="0" height="100%" width="100%"/>
  </g>
 </g>
 <g>
  <title>Layer 1</title>
  <rect transform="rotate(89.7789, 191.337, 133.443)" id="svg_22" height="1.003904" width="111.011865" y="132.941346" x="135.831253" stroke-width="1.5" stroke="#ff0000" fill="#000000"/>
  <rect transform="rotate(-90.0185, 193.383, 242.436)" id="svg_15" height="7" width="79.962473" y="238.936465" x="153.401293" stroke-width="1.5" stroke="#000" fill="#000000"/>
  <path d="m193.573761,172.483337c-0.146255,0 -0.438782,0 -0.585052,0c-0.438812,0 -0.885437,0.125244 -1.170135,0.23172c-0.318329,0.119034 -0.446625,0.125229 -0.731354,0.231705c-0.318298,0.119034 -0.540222,0.338028 -0.731323,0.463425c-0.270264,0.177353 -0.481644,0.067871 -0.585068,0.23172c-0.206863,0.327698 -0.296463,-0.053253 -0.438797,0c-0.318329,0.119034 -0.247711,0.338013 -0.438812,0.463425c-0.135132,0.088669 -0.292542,0.231705 -0.438797,0.463425c-0.146271,0.23172 -0.292526,0.463425 -0.438797,0.695129c-0.146271,0.23172 -0.292542,0.46344 -0.292542,0.46344c0,0.23172 -0.146271,0.463425 -0.146271,0.695129c0,0.23172 0,0.46344 0,0.46344c0,0.231705 0,0.463409 0,0.463409c0,0.46344 0,0.46344 0,0.69516c0,0.231705 0,0.231705 0,0.463409c0,0 0,0.23172 0,0.46344c0,0 0,0 0.146271,0c0,0 0,0.231705 0.146271,0.231705c0,0 0.146271,0.231705 0.146271,0.463425c0,0 0.292526,0.23172 0.292526,0.46344c0,0 0.146271,0 0.146271,0.231705c0,0 0.146255,0.231705 0.292526,0.231705c0,0 0.189117,0.067871 0.292542,0.23172c0.206848,0.327698 0.438797,0.23172 0.731339,0.23172c0.146255,0 0.438797,0 0.585068,0c0.146271,0 0.438797,0 0.438797,0c0.292526,0 0.438797,0 0.731339,0c0.146271,0 0.296448,0.053223 0.438797,0c0.318314,-0.119049 0.27478,-0.346069 0.731339,-0.46344c0.144379,-0.037109 0.247696,-0.106293 0.438812,-0.231705c0.135132,-0.088669 0.524475,0.095978 0.731323,-0.231705c0.103424,-0.163849 0.146271,-0.46344 0.292542,-0.46344c0.146271,0 0.270996,-0.50354 0.438797,-0.695129c0.265335,-0.302963 0.359634,-0.392395 0.438797,-0.695145c0.055969,-0.214081 0.02533,-0.197586 0.146271,-0.463425c0.191238,-0.420334 0.146271,-0.695145 0.146271,-0.695145c0,-0.231705 0,-0.231705 0,-0.231705c0,-0.46344 0,-0.46344 0,-0.46344c-0.292542,0 -0.585068,-0.231705 -0.731339,-0.231705c-0.585068,0 -0.731339,0 -1.170135,0c-0.292526,0 -0.438797,0 -0.877609,0c-0.292526,0 -0.739166,0.125229 -1.023865,0.231705c-0.636627,0.238098 -1.036423,0.792572 -1.316406,0.926849c-0.504745,0.242111 -0.897064,0.595398 -1.462677,0.926865c-0.306732,0.179764 -0.413025,0.576096 -0.731323,0.695145c-0.142365,0.053223 -0.35965,0.160675 -0.438812,0.463409c-0.055969,0.214081 -0.313629,0.679901 -0.438797,1.158569c-0.177002,0.676971 -0.438797,1.158569 -0.585068,1.853714c-0.146271,0.695145 -0.079056,1.170959 -0.146271,1.621994c-0.075134,0.504257 -0.146271,0.926849 -0.146271,1.390274c0,0.695145 0,1.158569 0,1.158569c0,0.231705 0,0.231705 0,0.463425c0,0 0,0.23172 0.146271,0.463425c0.146271,0.23172 0.189117,0.299576 0.292542,0.463425c0.206848,0.327698 0.877594,0 1.023865,0c0.438812,0 0.738892,0.148468 1.316406,0c0.456558,-0.117371 0.66539,-0.916458 1.170135,-1.158569c0.419983,-0.201431 0.908569,-0.165466 1.316406,-0.695129c0.319946,-0.415497 0.641663,-0.676056 1.023865,-0.926849c0.270264,-0.177353 0.585083,-0.23172 0.877609,-0.46344c0.292526,-0.231705 0.540085,-0.506516 0.731339,-0.926849c0.120941,-0.265839 0.335373,-0.299576 0.438797,-0.463425c0.103424,-0.163834 0.213364,-0.392395 0.292526,-0.695145c0.055984,-0.214081 0.146271,-0.231705 0.146271,-0.231705c0,-0.231705 0,-0.231705 0,-0.231705c0,0 -0.080322,-0.221344 -0.585068,-0.46344c-0.279984,-0.134277 -0.585068,0 -0.731339,0c-0.292526,0 -0.438797,0 -0.585052,0c-0.292542,0 -0.877609,0 -1.02388,0c-0.438797,0 -0.877609,0 -1.170135,0c-0.438797,0 -0.670761,0.135742 -0.877609,0.46344c-0.103424,0.163834 -0.236557,0.481049 -0.292526,0.695129c-0.158325,0.605499 -0.438797,0.695129 -0.438797,0.695129c-0.146271,0.46344 -0.256744,0.957458 -0.585083,1.853714c-0.264694,0.722595 -0.481628,1.22644 -0.585052,1.390274c-0.206863,0.327698 0,0.46344 0,0.695145c0,0.23172 0,0.463425 0,0.695145c0,0.23172 -0.103424,0.531296 0,0.695129c0.103424,0.163849 0.30365,0.374756 0.438782,0.46344c0.191116,0.125397 0.146271,0.463425 0.292542,0.695129c0.146271,0.23172 0.146271,0.46344 0.146271,0.46344c0,0 0.146271,0 0.146271,0c0.146271,0.231705 0.146271,0.463409 0.146271,0.463409c0.146255,0 0.157394,-0.088669 0.292526,0c0.191116,0.125412 0.146271,0.23172 0.146271,0.23172c0.146255,0 0.189102,-0.299591 0.292526,-0.463425c0.206848,-0.327682 0.292542,-0.231705 0.438812,-0.463425c0.146271,-0.23172 0.292526,-0.463425 0.292526,-0.463425c0.292526,-0.23172 0.292526,-0.463425 0.438797,-0.926865c0,0 0.146271,-0.231705 0.292542,-0.463409c0,0 0.076904,-0.197113 0,0c-0.171951,0.440735 -0.438812,0.463409 -0.585068,0.926849c-0.146271,0.463425 -0.382828,0.712769 -0.438797,0.926849c-0.079163,0.302734 -0.207535,0.560486 -0.438812,0.926849c-0.462524,0.732758 -0.393829,1.20166 -0.585068,1.621994c-0.120956,0.265839 -0.103195,0.543655 -0.438797,0.926865c-0.26532,0.302948 -0.585068,0.695129 -0.877594,1.158554c-0.292542,0.463425 -0.543259,1.207611 -0.877609,1.853714c-0.262283,0.506821 -0.606552,1.126877 -0.877609,1.621979c-0.479172,0.875259 -0.791138,1.570175 -1.170135,2.780563c-0.350006,1.117859 -0.759735,2.291306 -1.170135,3.475708c-0.314774,0.908371 -0.438812,1.390274 -0.585068,2.317123c-0.146271,0.926849 -0.511383,1.832336 -0.585068,2.780563c-0.089355,1.149887 -0.146271,1.853699 -0.146271,2.548843c0,0.463425 0,1.390274 0,2.085419c0,0.463425 0,0.926849 0,1.390274c0,0.463425 0.146271,0.926865 0.292542,1.390289c0.146271,0.463425 0.195618,0.998672 0.438797,1.621994c0.217499,0.557495 0.341904,0.998672 0.585068,1.621994c0.217499,0.557495 0.438797,0.926849 0.731339,1.390274c0.146255,0.231705 0.525681,0.814011 0.877609,1.158569c0.393448,0.385223 0.8479,0.754578 1.023865,0.926849c0.393463,0.385223 0.731323,0.463425 1.023865,0.695145c0.292542,0.231705 0.533508,0.457062 1.170135,0.695129c0.427063,0.159714 0.859848,0.346054 1.316406,0.463425c0.577515,0.148468 0.82605,0.225357 1.462677,0.46344c0.569412,0.212936 1.316406,0 2.047729,0c0.731339,0 1.507355,0.147903 2.194016,-0.46344c0.637558,-0.567612 1.078278,-0.784363 1.608932,-1.390274c0.335617,-0.383209 0.877609,-1.390274 1.316406,-2.085419c0.292542,-0.463425 0.688263,-1.47049 1.023865,-1.853699c0.265335,-0.302963 0.75148,-1.133759 1.316406,-2.317139c0.758957,-1.589828 1.077667,-2.679504 1.608948,-3.475693c0.383102,-0.574142 0.66748,-1.32135 1.023865,-2.548859c0.193268,-0.665695 0.438797,-1.390274 0.438797,-2.085419c0,-0.695129 0,-1.390274 0,-2.317123c0,-0.926849 0.043091,-1.702209 -0.292526,-2.085419c-0.26532,-0.302948 -0.5401,-0.738251 -0.731339,-1.158569c-0.241898,-0.531677 -0.541977,-1.007065 -0.877594,-1.390274c-0.265335,-0.302948 -0.686371,-0.738251 -0.877609,-1.158569c-0.241898,-0.531677 -0.543259,-0.744186 -0.877609,-1.390289c-0.131149,-0.253418 -0.382828,-0.712769 -0.438797,-0.926849c-0.158325,-0.605484 -0.567749,-0.739227 -1.023865,-1.158569c-0.282883,-0.260056 -0.484146,-0.078186 -0.877609,-0.463425c-0.351913,-0.344559 -0.505905,-0.6241 -0.585068,-0.926849c-0.055969,-0.214081 -0.413116,-0.486115 -0.585068,-0.926849c-0.076889,-0.197113 -0.014328,-0.886169 -0.292526,-1.158569c-0.12442,-0.121811 -0.363678,-0.422592 -0.438812,-0.926849c-0.0672,-0.451035 -0.217392,-0.886017 -0.292542,-1.390274c-0.0672,-0.451035 -0.167358,-1.143311 -0.292526,-1.622009c-0.177002,-0.676956 -0.23558,-1.65889 -0.438797,-2.317123c-0.231705,-0.750504 -0.408066,-1.176743 -0.585068,-1.853714c-0.25032,-0.957367 -0.573013,-1.248199 -0.731339,-1.853699c-0.111954,-0.428146 -0.146271,-0.463425 -0.146271,-0.926849l-0.146271,-0.46344l0,0l-0.146271,0" id="svg_25" fill-opacity="null" stroke-width="4" stroke="#ff0000" fill="none"/>
  <path id="svg_1" d="m163.5,72.950012" opacity="0.5" stroke-width="1.5" stroke="#000" fill="#fff"/>
  <rect id="svg_3" height="7" width="140" y="273.950012" x="10.5" stroke-width="1.5" stroke="#000" fill="#000000"/>
  <rect id="svg_4" height="7" width="140" y="273.950012" x="10.5" stroke-width="1.5" stroke="#000" fill="#000000"/>
  <rect id="svg_6" height="7" width="50.000003" y="273.950012" x="239.499999" stroke-width="1.5" stroke="#000" fill="#000000"/>
  <rect transform="rotate(-89.982, 47.5146, 156.95)" id="svg_7" height="7" width="233.000003" y="153.450011" x="-68.985413" stroke-width="1.5" stroke="#000" fill="#000000"/>
  <rect id="svg_8" height="7" width="148.999993" y="39.950012" x="45.5" stroke-width="1.5" stroke="#000" fill="#000000"/>
  <rect transform="rotate(89.7789, 191.206, 60.9492)" id="svg_10" height="7" width="42.000796" y="57.449211" x="170.206024" stroke-width="1.5" stroke="#000" fill="#000000"/>
  <ellipse ry="22.5" rx="22" id="svg_13" cy="191.450012" cx="192.5" stroke-opacity="null" stroke-width="1.5" stroke="#000" fill="#000000"/>
  <rect transform="rotate(18, 177.936, 232.283)" id="svg_18" height="7" width="26.458196" y="228.783275" x="164.707" stroke-width="1.5" stroke="#000" fill="#000000"/>
  <rect transform="rotate(-23.2686, 207.936, 231.283)" id="svg_19" height="7" width="26.458196" y="227.783275" x="194.707" stroke-width="1.5" stroke="#000" fill="#000000"/>
  <rect transform="rotate(-48.9301, 178.543, 294.334)" id="svg_20" height="7" width="39.89756" y="290.83383" x="158.594685" stroke-width="1.5" stroke="#000" fill="#000000"/>
  <rect transform="rotate(43.6137, 210.543, 295.334)" id="svg_21" height="7" width="39.89756" y="291.83383" x="190.594685" stroke-width="1.5" stroke="#000" fill="#000000"/>
  <path d="m187.25,176.733337c-0.25,0 -0.501877,-0.030548 -0.75,0c-1.023056,0.125946 -1.425659,0.885345 -2.25,1.25c-0.942657,0.417007 -1.577499,0.584381 -2.25,1c-0.300751,0.185883 -0.705933,0.621567 -1.25,0.75c-0.243317,0.057434 -0.3647,-0.07663 -0.5,0.25c-0.095673,0.230972 -0.368561,0.537338 -0.5,0.75c-0.293884,0.475525 -0.42337,0.6147 -0.75,0.75c-0.230972,0.095673 -0.537338,0.368561 -0.75,0.5c-0.95105,0.587784 -0.75,1 -1,1.25l0,0.25l0,0l0,0.25" id="svg_28" fill-opacity="null" stroke-width="1.5" stroke="#ffffff" fill="none"/>
  <path d="m205.5,176.733337c-0.25,0 -0.263367,-0.114868 -0.75,0c-0.544067,0.128433 -0.824249,0.903458 -1.5,1.5c-0.419083,0.369965 -1.220383,0.797577 -2,1.25c-0.48349,0.280579 -0.956116,0.274475 -1.25,0.75c-0.131439,0.212662 -0.269028,0.404327 -0.5,0.5c-0.32663,0.1353 -0.5,0.5 -0.75,0.75c-0.25,0.25 0.062469,0.865646 -0.75,1.5c-0.197052,0.153854 -0.5,0.25 -0.5,0.5c0,0.25 -0.173126,0.296509 -0.5,0.75c-0.206726,0.286819 -0.5,0.25 -0.5,0.25c0,0.25 -0.25,0.25 -0.25,0.5c0,0 -0.25,0 -0.25,0c0,0 -0.25,0 -0.25,0c0,0.25 0,0.5 0,0.5l-0.25,0l0,0l-0.25,0" id="svg_29" fill-opacity="null" stroke-width="1.5" stroke="#ffffff" fill="none"/>
  <path d="m177.75,176.483337c0.25,0 0.25,0 0.25,0c0.25,0 0.5,0.25 0.5,0.25c0,0.25 0.173126,0.546509 0.5,1c0.413452,0.573639 0.774475,0.956116 1.25,1.25c0.212662,0.131439 0.75,0.5 1.25,0.75c0,0 0.5,0.5 0.75,0.75c0.25,0.25 0.5,0.25 0.75,0.5c0.25,0.25 0.537338,0.368561 0.75,0.5c0.475525,0.293884 0.269028,0.404327 0.5,0.5c0.32663,0.1353 0.506683,0.442566 0.75,0.5c0.544067,0.128433 0.5,0.5 0.75,0.5c0.25,0 0.5,0.25 0.5,0.25c0,0 0.073227,0.323227 0.25,0.5c0.176773,0.176773 0.25,0 0.25,0l0.25,0.25l0,0" id="svg_30" fill-opacity="null" stroke-width="1.5" stroke="#ffffff" fill="none"/>
  <path d="m197,176.983337c0.5,0.5 1.218475,1.038834 2.75,2.25c1.960922,1.550751 3.115891,2.931274 4.75,4c0.935684,0.611954 1.652771,0.732025 2.25,1.25c0.422302,0.366272 0.5,0.5 0.75,0.75l0,0.25l0.25,0" id="svg_31" fill-opacity="null" stroke-width="1.5" stroke="#ffffff" fill="none"/>
  <path d="m184.25,209.983337c0.25,0 0.769608,0.052536 1.5,-0.25c1.032928,-0.427856 1.190277,-1.103973 2,-1.5c0.710175,-0.347336 1.327545,-0.679749 2,-1.5c0.571472,-0.697083 0.76651,-1.469421 1.25,-1.75c0.779617,-0.452423 1.546509,-1.423141 2,-1.75c0.573639,-0.413452 0.796509,-0.923141 1.25,-1.25c0.286819,-0.206726 0.75,-0.5 1,-0.75c0.25,-0.25 0.763367,-0.135117 1.25,-0.25c0.544067,-0.128433 1.146454,-0.146454 1.5,-0.5c0.176773,-0.176773 0.25,-0.25 0.75,-0.5c0.5,-0.25 0.8647,-0.173355 1,-0.5c0.095673,-0.230972 0.25,-0.25 0.25,-0.25l0,0" id="svg_32" fill-opacity="null" stroke-width="1.5" stroke="#ffffff" fill="none"/>
  <path d="m190,206.733337c0,0 0,0.25 0,0.25c0,0.25 0,0.5 0,1c0,0 0,0.25 0,0.25c0,0.25 0.154327,0.519028 0.25,0.75c0.1353,0.326645 0.25,0.5 0.25,0.5c0,0.25 0.25,0.5 0.25,0.5c0.25,0.5 0.25,0.5 0.25,1c0,0 0,0.5 0,0.5c0,0.25 0.25,0.25 0.25,0.25c0,0 0,0 0.25,0.25c0,0 0,0 0,0c0.25,0.25 0.073227,0.323227 0.25,0.5c0.353546,0.353546 0.5,0.25 0.5,0.25c0.25,0 0.25,0.25 0.5,0.25c0.25,0 0.323227,-0.176773 0.5,0c0.176773,0.176773 0,0.25 0.25,0.25c0,0 0.25,0 0.5,0c0,0 0.5,0 0.5,0c0.5,0 0.5,-0.25 0.75,-0.25c0.5,0 0.537338,-0.118561 0.75,-0.25c0.475525,-0.2939 0.5,-0.5 0.5,-0.75c0,-0.25 -0.076874,-0.546509 0.25,-1c0.206726,-0.286819 0.192566,-0.756683 0.25,-1c0.128433,-0.544067 0.169907,-1.256454 0.25,-1.75c0.126633,-0.780365 0.25,-1.25 0.25,-1.5c0,-0.25 0,-0.5 0,-0.75c0,-0.25 0,-0.25 0,-0.75c0,0 -0.1147,-0.173355 -0.25,-0.5c-0.191345,-0.461945 -0.25,-0.75 -0.25,-1.25c0,0 -0.25,-0.5 -0.25,-0.75c0,-0.25 -0.25,-0.25 -0.25,-0.5c0,0 -0.25,-0.5 -0.25,-0.75l0,0l0,-0.25l-0.25,0" id="svg_34" fill-opacity="null" stroke-width="1.5" stroke="#ffffff" fill="none"/>
 </g>
</svg>